<svg width="19" height="18" viewBox="0 0 19 18" fill="currentColor" xmlns="http://www.w3.org/2000/svg">
<path d="M9.20308 18C10.2185 18 11.0492 17.1692 11.0492 16.1538H7.35692C7.35692 17.1692 8.18769 18 9.20308 18ZM14.7415 12.4615V7.84615C14.7415 5.01231 13.2369 2.64 10.5877 2.01231V1.38462C10.5877 0.618462 9.96923 0 9.20308 0C8.43692 0 7.81846 0.618462 7.81846 1.38462V2.01231C5.17846 2.64 3.66462 5.00308 3.66462 7.84615V12.4615L1.81846 14.3077V15.2308H16.5877V14.3077L14.7415 12.4615ZM12.8954 13.3846H5.51077V7.84615C5.51077 5.55692 6.90462 3.69231 9.20308 3.69231C11.5015 3.69231 12.8954 5.55692 12.8954 7.84615V13.3846ZM5.12308 1.45846L3.80308 0.138462C1.58769 1.82769 0.129231 4.43077 0 7.38462H1.84615C1.98462 4.93846 3.24 2.79692 5.12308 1.45846ZM16.56 7.38462H18.4062C18.2677 4.43077 16.8092 1.82769 14.6031 0.138462L13.2923 1.45846C15.1569 2.79692 16.4215 4.93846 16.56 7.38462Z" />
</svg>
